<svg xmlns="http://www.w3.org/2000/svg" width="40" height="40" viewBox="0 0 40 40">
  <g id="Foto_Perfil_Login" data-name="Foto Perfil Login" transform="translate(-1424 -42)">
    <circle id="Elipse_43" data-name="Elipse 43" cx="20" cy="20" r="20" transform="translate(1424 42)" fill="none"/>
    <path id="Subtração_1" data-name="Subtração 1" d="M14716.286,15461a19.119,19.119,0,0,1-8.282-1.883,19.443,19.443,0,0,1-3.527-2.187,19.692,19.692,0,0,1-2.977-2.869,11.507,11.507,0,0,1,4.059-4.393,11,11,0,0,1,5.883-1.691,2.449,2.449,0,0,1,.717.111,13.193,13.193,0,0,0,4.128.7,12.127,12.127,0,0,0,2.116-.191,14.714,14.714,0,0,0,2.012-.51,2.443,2.443,0,0,1,.716-.111,11.008,11.008,0,0,1,5.884,1.691,11.513,11.513,0,0,1,4.058,4.393,19.685,19.685,0,0,1-2.976,2.869,19.477,19.477,0,0,1-3.527,2.188,19.128,19.128,0,0,1-8.282,1.883Zm0-17.094a8.851,8.851,0,0,1-1.79-.184,8.754,8.754,0,0,1-1.667-.521,8.93,8.93,0,0,1-3.908-3.244,8.931,8.931,0,0,1-1.336-3.2,9.1,9.1,0,0,1,0-3.609,8.947,8.947,0,0,1,3.735-5.619,8.811,8.811,0,0,1,9.932,0,8.9,8.9,0,0,1,2.4,2.418,8.949,8.949,0,0,1,1.337,3.2,9.153,9.153,0,0,1,0,3.609,8.923,8.923,0,0,1-5.244,6.445,8.754,8.754,0,0,1-1.667.521A8.858,8.858,0,0,1,14716.286,15443.91Z" transform="translate(-13272.285 -15379.004)" fill="#5754d8"/>
  </g>
</svg>
